<svg width="204" height="12" viewBox="0 0 204 12" fill="none" xmlns="http://www.w3.org/2000/svg">
<g id="Oval 2">
<path id="Oval" fill-rule="evenodd" clip-rule="evenodd" d="M78 12C81.3137 12 84 9.31371 84 6C84 2.68629 81.3137 0 78 0C74.6863 0 72 2.68629 72 6C72 9.31371 74.6863 12 78 12Z" fill="#DDDDDD"/>
<path id="Oval Copy 3" fill-rule="evenodd" clip-rule="evenodd" d="M30 12C33.3137 12 36 9.31371 36 6C36 2.68629 33.3137 0 30 0C26.6863 0 24 2.68629 24 6C24 9.31371 26.6863 12 30 12Z" fill="#DDDDDD"/>
<path id="Oval Copy 4" fill-rule="evenodd" clip-rule="evenodd" d="M54 12C57.3137 12 60 9.31371 60 6C60 2.68629 57.3137 0 54 0C50.6863 0 48 2.68629 48 6C48 9.31371 50.6863 12 54 12Z" fill="#DDDDDD"/>
<path id="Oval Copy 5" fill-rule="evenodd" clip-rule="evenodd" d="M6 12C9.31371 12 12 9.31371 12 6C12 2.68629 9.31371 0 6 0C2.68629 0 0 2.68629 0 6C0 9.31371 2.68629 12 6 12Z" fill="#B5B6BC"/>
<path id="Oval Copy 6" fill-rule="evenodd" clip-rule="evenodd" d="M102 12C105.314 12 108 9.31371 108 6C108 2.68629 105.314 0 102 0C98.6863 0 96 2.68629 96 6C96 9.31371 98.6863 12 102 12Z" fill="#DDDDDD"/>
<path id="Oval Copy 7" fill-rule="evenodd" clip-rule="evenodd" d="M126 12C129.314 12 132 9.31371 132 6C132 2.68629 129.314 0 126 0C122.686 0 120 2.68629 120 6C120 9.31371 122.686 12 126 12Z" fill="#DDDDDD"/>
<path id="Oval Copy 8" fill-rule="evenodd" clip-rule="evenodd" d="M150 12C153.314 12 156 9.31371 156 6C156 2.68629 153.314 0 150 0C146.686 0 144 2.68629 144 6C144 9.31371 146.686 12 150 12Z" fill="#DDDDDD"/>
<path id="Oval Copy 9" fill-rule="evenodd" clip-rule="evenodd" d="M174 12C177.314 12 180 9.31371 180 6C180 2.68629 177.314 0 174 0C170.686 0 168 2.68629 168 6C168 9.31371 170.686 12 174 12Z" fill="#DDDDDD"/>
<path id="Oval Copy 10" fill-rule="evenodd" clip-rule="evenodd" d="M198 12C201.314 12 204 9.31371 204 6C204 2.68629 201.314 0 198 0C194.686 0 192 2.68629 192 6C192 9.31371 194.686 12 198 12Z" fill="#DDDDDD"/>
</g>
</svg>
